<svg width="16" height="16" viewBox="0 0 16 16" fill="none" xmlns="http://www.w3.org/2000/svg">
<g id="Iconly/Light/Delete">
<g id="Delete">
<path id="Stroke 1" d="M12.8825 6.31201C12.8825 6.31201 12.5205 10.802 12.3105 12.6933C12.2105 13.5967 11.6525 14.126 10.7385 14.1427C8.99921 14.174 7.25788 14.176 5.51921 14.1393C4.63987 14.1213 4.09121 13.5853 3.99321 12.698C3.78188 10.79 3.42188 6.31201 3.42188 6.31201" stroke="#EB5757" stroke-width="1.5" stroke-linecap="round" stroke-linejoin="round"/>
<path id="Stroke 3" d="M13.8053 4.15975H2.5" stroke="#EB5757" stroke-width="1.5" stroke-linecap="round" stroke-linejoin="round"/>
<path id="Stroke 5" d="M11.6284 4.15974C11.105 4.15974 10.6544 3.78974 10.5517 3.27707L10.3897 2.46641C10.2897 2.09241 9.95102 1.83374 9.56502 1.83374H6.74302C6.35702 1.83374 6.01835 2.09241 5.91835 2.46641L5.75635 3.27707C5.65369 3.78974 5.20302 4.15974 4.67969 4.15974" stroke="#EB5757" stroke-width="1.5" stroke-linecap="round" stroke-linejoin="round"/>
</g>
</g>
</svg>
